Coordinates
version=1
nRows=21
nColumns=38
inDegrees=no

Units are S.I. units (second, meters, Newtons, ...)
If the header above contains a line with 'inDegrees', this indicates whether rotational values are in degrees (yes) or radians (no).

endheader
time	pelvis_tilt	pelvis_list	pelvis_rotation	pelvis_tx	pelvis_ty	pelvis_tz	hip_flexion_r	hip_adduction_r	hip_rotation_r	knee_angle_r	ankle_angle_r	subtalar_angle_r	mtp_angle_r	hip_flexion_l	hip_adduction_l	hip_rotation_l	knee_angle_l	ankle_angle_l	subtalar_angle_l	mtp_angle_l	lumbar_extension	lumbar_bending	lumbar_rotation	arm_flex_r	arm_add_r	arm_rot_r	elbow_flex_r	pro_sup_r	wrist_flex_r	wrist_dev_r	arm_flex_l	arm_add_l	arm_rot_l	elbow_flex_l	pro_sup_l	wrist_flex_l	wrist_dev_l
5	-1.57422	1.39662	0.919479	0.859998	1.20977	1.0229	0.0399226	0.155977	-0.181826	0	-0.245672	0	0	0.206747	-0.373606	-0.294674	0.23821	-0.397215	0	0	0.0941164	0.262597	-0.0155331	0.464072	-0.373203	-0.177655	0.711975	0.979629	0	0	-0.0835617	-0.293826	0.592966	0.51248	1.14626	0	0
5.01	-1.57611	1.39612	0.919007	0.859841	1.20956	1.02285	0.0404386	0.156315	-0.181015	0	-0.246049	0	0	0.2071	-0.374231	-0.295208	0.239688	-0.396371	0	0	0.0938587	0.262511	-0.0153155	0.463265	-0.375189	-0.170204	0.711925	0.977199	0	0	-0.0841982	-0.294103	0.593039	0.512404	1.14563	0	0
5.02	-1.57638	1.39577	0.917379	0.859724	1.20939	1.02282	0.0406214	0.156768	-0.180501	0	-0.246332	0	0	0.207291	-0.37486	-0.295514	0.240951	-0.395802	0	0	0.0933216	0.262604	-0.0148903	0.462435	-0.376489	-0.1672	0.71206	0.978176	0	0	-0.0845291	-0.294424	0.59299	0.512769	1.1455	0	0
5.03	-1.57588	1.39559	0.91532	0.859638	1.20925	1.02281	0.0405222	0.157159	-0.180148	0	-0.246662	0	0	0.207343	-0.375499	-0.295791	0.242247	-0.395195	0	0	0.0926054	0.262744	-0.0144511	0.46192	-0.377366	-0.16658	0.711584	0.980316	0	0	-0.0846858	-0.294801	0.592988	0.513476	1.14577	0	0
5.04	-1.5759	1.39565	0.914095	0.85956	1.20914	1.02282	0.0403364	0.157264	-0.17996	0	-0.246954	0	0	0.207348	-0.375816	-0.295959	0.24341	-0.394729	0	0	0.0919559	0.262719	-0.0142554	0.460852	-0.377233	-0.168608	0.711702	0.983891	0	0	-0.0848604	-0.29532	0.592866	0.514534	1.1465	0	0
5.05	-1.57614	1.39578	0.913427	0.859503	1.20907	1.02283	0.0402313	0.157242	-0.179609	0	-0.247154	0	0	0.207452	-0.375991	-0.295847	0.24451	-0.394312	0	0	0.0915424	0.262585	-0.0140318	0.45899	-0.376193	-0.173757	0.71214	0.989928	0	0	-0.0850377	-0.295945	0.592338	0.515986	1.14772	0	0
5.06	-1.57572	1.39594	0.912447	0.859467	1.20903	1.02286	0.0400819	0.157264	-0.179207	0	-0.247277	0	0	0.207755	-0.376144	-0.295555	0.245649	-0.393965	0	0	0.0911508	0.262525	-0.0135335	0.456861	-0.374143	-0.184199	0.712696	1.00005	0	0	-0.0850014	-0.296581	0.591473	0.517683	1.14987	0	0
5.07	-1.5745	1.39614	0.911006	0.859467	1.20902	1.0229	0.0398452	0.157317	-0.178988	0	-0.247365	0	0	0.208143	-0.376317	-0.295216	0.246795	-0.393721	0	0	0.0908302	0.262574	-0.0130398	0.454808	-0.371318	-0.198239	0.712985	1.01216	0	0	-0.0848334	-0.297171	0.590503	0.519359	1.15257	0	0
5.08	-1.57293	1.39642	0.909572	0.859486	1.20905	1.02294	0.0395398	0.157334	-0.178993	0	-0.247383	0	0	0.208489	-0.376449	-0.294551	0.247805	-0.393571	0	0	0.0901292	0.262734	-0.0129817	0.4528	-0.367459	-0.215116	0.713959	1.02591	0	0	-0.0848656	-0.297707	0.588328	0.521351	1.15578	0	0
5.09	-1.57088	1.39675	0.908041	0.85953	1.2091	1.02297	0.0390771	0.157296	-0.179324	0	-0.247333	0	0	0.208773	-0.376533	-0.293567	0.248609	-0.393562	0	0	0.089372	0.262963	-0.0129696	0.450853	-0.363156	-0.234472	0.714684	1.03942	0	0	-0.0848664	-0.29813	0.585332	0.523476	1.15951	0	0
5.1	-1.56876	1.39711	0.906744	0.859607	1.20919	1.02302	0.038648	0.157174	-0.17979	0	-0.247258	0	0	0.208995	-0.376497	-0.292486	0.24912	-0.393643	0	0	0.0885743	0.263208	-0.0126402	0.448919	-0.359118	-0.254729	0.71502	1.05199	0	0	-0.0846466	-0.298434	0.581866	0.525627	1.16358	0	0
5.11	-1.56672	1.39747	0.905671	0.859722	1.2093	1.02306	0.0382984	0.157043	-0.180136	0	-0.247088	0	0	0.209252	-0.376429	-0.291627	0.249674	-0.393773	0	0	0.0879725	0.263512	-0.012083	0.446655	-0.3561	-0.272624	0.714853	1.06214	0	0	-0.0842556	-0.29865	0.578517	0.527581	1.16739	0	0
5.12	-1.56385	1.39793	0.903971	0.859851	1.20945	1.02313	0.0377839	0.156959	-0.180426	0	-0.246854	0	0	0.209396	-0.376325	-0.290581	0.250281	-0.393926	0	0	0.087167	0.26394	-0.0110785	0.444276	-0.353453	-0.291334	0.714923	1.07132	0	0	-0.0835816	-0.298765	0.574778	0.529511	1.17137	0	0
5.13	-1.56008	1.3985	0.901752	0.85999	1.20961	1.0232	0.0369743	0.156868	-0.181169	0	-0.24663	0	0	0.209526	-0.376183	-0.289538	0.25089	-0.394024	0	0	0.086237	0.264415	-0.00982436	0.441763	-0.351371	-0.310361	0.71506	1.0788	0	0	-0.0826887	-0.298952	0.570867	0.531586	1.17531	0	0
5.14	-1.55593	1.39912	0.899538	0.860153	1.2098	1.02328	0.0359383	0.15666	-0.182743	0	-0.246365	0	0	0.209656	-0.375984	-0.288725	0.251307	-0.39418	0	0	0.0854189	0.264889	-0.00827474	0.439182	-0.349896	-0.329381	0.714313	1.0832	0	0	-0.0814095	-0.299032	0.567407	0.533434	1.17962	0	0
5.15	-1.5535	1.39946	0.899009	0.860291	1.21001	1.02331	0.0357244	0.156526	-0.183387	0	-0.246036	0	0	0.210261	-0.375808	-0.288507	0.251801	-0.3944	0	0	0.0850204	0.265339	-0.00609362	0.436528	-0.349049	-0.348814	0.71326	1.08452	0	0	-0.0797277	-0.298957	0.564446	0.534954	1.18429	0	0
5.16	-1.5522	1.39965	0.899631	0.860422	1.21022	1.02333	0.0358391	0.156312	-0.183601	0	-0.245639	0	0	0.211093	-0.375586	-0.28872	0.252135	-0.39478	0	0	0.0852541	0.265589	-0.00346042	0.432628	-0.348672	-0.36776	0.713065	1.08422	0	0	-0.0778793	-0.298715	0.561303	0.536095	1.18882	0	0
5.17	-1.55054	1.39993	0.900066	0.860584	1.21043	1.02336	0.0357248	0.156069	-0.184117	0	-0.245172	0	0	0.211649	-0.375227	-0.288351	0.25202	-0.395305	0	0	0.0856665	0.265842	-0.000555232	0.428002	-0.348748	-0.387007	0.713733	1.08183	0	0	-0.0760923	-0.298488	0.557705	0.537379	1.193	0	0
5.18	-1.54818	1.40029	0.900097	0.860786	1.21065	1.0234	0.0353605	0.155832	-0.185038	0	-0.244696	0	0	0.212025	-0.37479	-0.287346	0.251618	-0.395897	0	0	0.0860488	0.266107	0.00239342	0.422936	-0.349137	-0.407023	0.715291	1.07767	0	0	-0.0742987	-0.29838	0.554187	0.538989	1.19705	0	0
5.19	-1.54552	1.40062	0.900101	0.861011	1.21089	1.02344	0.0349421	0.155524	-0.186108	0	-0.244325	0	0	0.212413	-0.374358	-0.286058	0.251115	-0.396441	0	0	0.0865438	0.266304	0.00536397	0.41705	-0.349511	-0.427561	0.717808	1.07275	0	0	-0.0725199	-0.298348	0.550559	0.540983	1.20054	0	0
5.2	-1.54274	1.40081	0.90019	0.86123	1.21115	1.02349	0.0346403	0.155153	-0.187091	0	-0.244197	0	0	0.212901	-0.374004	-0.284414	0.250456	-0.397084	0	0	0.0871325	0.266556	0.00828522	0.410613	-0.349837	-0.448899	0.721733	1.06816	0	0	-0.070897	-0.298494	0.547115	0.543556	1.20375	0	0
